<svg xmlns="http://www.w3.org/2000/svg" width="32" height="32" viewBox="0 0 32 32"><rect x="2.56" y="2.56" width="1.34" height="6.12" rx="0.38" fill="rgb(0,229,255)"/><rect x="5.25" y="2.56" width="1.34" height="6.12" rx="0.38" fill="rgb(0,229,255)"/><rect x="7.94" y="2.56" width="1.34" height="6.12" rx="0.38" fill="rgb(0,229,255)"/><rect x="10.62" y="2.56" width="1.34" height="6.12" rx="0.38" fill="rgb(0,229,255)"/><rect x="13.31" y="2.56" width="1.34" height="6.12" rx="0.38" fill="rgb(0,229,255)"/><rect x="16.00" y="2.56" width="1.34" height="6.12" rx="0.38" fill="rgb(0,229,255)"/><rect x="18.69" y="2.56" width="1.34" height="6.12" rx="0.38" fill="rgb(0,229,255)"/><rect x="21.38" y="2.56" width="1.34" height="6.12" rx="0.38" fill="rgb(0,229,255)"/><rect x="24.06" y="2.56" width="1.34" height="6.12" rx="0.38" fill="rgb(0,229,255)"/><rect x="26.75" y="2.56" width="1.34" height="6.12" rx="0.38" fill="rgb(0,229,255)"/><rect x="2.56" y="9.48" width="1.41" height="6.12" rx="0.38" fill="rgb(0,229,255)"/><rect x="5.38" y="9.48" width="1.41" height="6.12" rx="0.38" fill="rgb(0,229,255)"/><rect x="8.20" y="9.48" width="1.41" height="6.12" rx="0.38" fill="rgb(0,229,255)"/><rect x="11.03" y="9.48" width="1.41" height="6.12" rx="0.38" fill="rgb(0,229,255)"/><rect x="2.56" y="16.40" width="1.41" height="6.12" rx="0.38" fill="rgb(255,45,123)"/><rect x="5.38" y="16.40" width="1.41" height="6.12" rx="0.38" fill="rgb(255,45,123)"/><rect x="8.20" y="16.40" width="1.41" height="6.12" rx="0.38" fill="rgb(255,45,123)"/><rect x="11.03" y="16.40" width="1.41" height="6.12" rx="0.38" fill="rgb(255,45,123)"/><rect x="2.56" y="23.32" width="1.34" height="6.12" rx="0.38" fill="rgb(255,45,123)"/><rect x="5.25" y="23.32" width="1.34" height="6.12" rx="0.38" fill="rgb(255,45,123)"/><rect x="7.94" y="23.32" width="1.34" height="6.12" rx="0.38" fill="rgb(255,45,123)"/><rect x="10.62" y="23.32" width="1.34" height="6.12" rx="0.38" fill="rgb(255,45,123)"/><rect x="13.31" y="23.32" width="1.34" height="6.12" rx="0.38" fill="rgb(255,45,123)"/><rect x="16.00" y="23.32" width="1.34" height="6.12" rx="0.38" fill="rgb(255,45,123)"/><rect x="18.69" y="23.32" width="1.34" height="6.12" rx="0.38" fill="rgb(255,45,123)"/><rect x="21.38" y="23.32" width="1.34" height="6.12" rx="0.38" fill="rgb(255,45,123)"/><rect x="24.06" y="23.32" width="1.34" height="6.12" rx="0.38" fill="rgb(255,45,123)"/><rect x="26.75" y="23.32" width="1.34" height="6.12" rx="0.38" fill="rgb(255,45,123)"/></svg>